/vscmnt/brussel_pixiu_data/_data_brussel/112/vsc11236/PredSimResults/SUBJ07mtu3D/worker10.mot
version=1
nRows=10
nColumns=50
inDegrees=yes
endheader
                time	         pelvis_tilt	         pelvis_list	     pelvis_rotation	           pelvis_tx	           pelvis_ty	           pelvis_tz	       hip_flexion_r	     hip_adduction_r	      hip_rotation_r	        knee_angle_r	       ankle_angle_r	         mtp_angle_r	       hip_flexion_l	     hip_adduction_l	      hip_rotation_l	        knee_angle_l	       ankle_angle_l	         mtp_angle_l	    lumbar_extension	      lumbar_bending	     lumbar_rotation	 ercspn_r/activation	 intobl_r/activation	 extobl_r/activation	    abd_r/activation	    add_r/activation	hamstrings_r/activation	bifemsh_r/activation	glut_max_r/activation	iliopsoas_r/activation	rect_fem_r/activation	  vasti_r/activation	gastroc_r/activation	 soleus_r/activation	tib_ant_r/activation	 ercspn_l/activation	 intobl_l/activation	 extobl_l/activation	    abd_l/activation	    add_l/activation	hamstrings_l/activation	bifemsh_l/activation	glut_max_l/activation	iliopsoas_l/activation	rect_fem_l/activation	  vasti_l/activation	gastroc_l/activation	 soleus_l/activation	tib_ant_l/activation	
          1.63179111	         -4.09575297	          0.04168474	         -8.51803017	          1.99078515	          0.85027800	          0.01390229	        -14.52406823	          0.37273350	          4.59520698	         -7.51438521	          8.98397272	         25.49806805	         29.51209589	         -2.30090389	         -3.80175380	         -5.68057528	          2.59809613	          0.26778032	        -10.02382052	          1.48456542	          2.72761974	          0.10025663	          0.00999999	          0.00999999	          0.03792373	          0.01000000	          0.01872155	          0.14847332	          0.01903138	          0.29124980	          0.01000001	          0.00999999	          0.11233496	          0.26549452	          0.01848026	          0.10894975	          0.16515327	          0.01000000	          0.03735722	          0.11754963	          0.04408211	          0.12449998	          0.06514678	          0.01889709	          0.01181311	          0.00999999	          0.00999999	          0.00999999	          0.41677978	
          1.64266972	         -4.11263361	         -0.02637212	         -8.51246114	          2.00624852	          0.84878663	          0.01398348	        -14.91919449	          0.37741760	          4.23921245	         -8.66799825	          8.15210891	         27.16476670	         29.20848765	         -2.13014422	         -3.46378391	         -6.96069189	          2.38007059	          0.25361304	         -9.89028753	          1.05361512	          2.90769910	          0.12354141	          0.00999999	          0.01000001	          0.03210311	          0.01317255	          0.01584829	          0.12568531	          0.01611040	          0.24654814	          0.01000000	          0.00999999	          0.09509354	          0.23090029	          0.01564387	          0.09222790	          0.14472024	          0.00999999	          0.03162355	          0.09950786	          0.04608084	          0.11980467	          0.11404457	          0.01599672	          0.01000001	          0.00999999	          0.02024453	          0.01648510	          0.43785628	
          1.65354832	         -4.12509581	         -0.07744094	         -8.45577407	          2.02184640	          0.84751505	          0.01399288	        -15.17251109	          0.37852824	          3.84675319	        -10.08702790	          7.21353434	         28.79164058	         28.84594742	         -1.99488475	         -3.12461751	         -8.18156937	          2.04417897	          0.24941637	         -9.75020468	          0.59642786	          3.07285303	          0.14221163	          0.00999999	          0.00999999	          0.02717585	          0.01115080	          0.01341588	          0.10639485	          0.01363774	          0.21010787	          0.01000000	          0.00999999	          0.08049837	          0.19546120	          0.01324281	          0.11659378	          0.12250826	          0.00999999	          0.10268741	          0.10775775	          0.04692624	          0.10141689	          0.12270046	          0.01354151	          0.00999999	          0.00999999	          0.01713736	          0.01395493	          0.47936006	
          1.66442693	         -4.13448021	         -0.13416832	         -8.34910106	          2.03740270	          0.84663446	          0.01389923	        -15.20842598	          0.40113306	          3.42313472	        -11.87733862	          6.13172569	         30.33610519	         28.49915006	         -1.86676225	         -2.85824004	         -9.40561725	          1.69923417	          0.22771993	         -9.62399007	          0.14423111	          3.22104558	          0.18324319	          0.00999999	          0.00999999	          0.02300484	          0.01000011	          0.01136114	          0.09006513	          0.01154459	          0.17786004	          0.01000000	          0.00999999	          0.06814330	          0.16546138	          0.01121028	          0.12289423	          0.10370542	          0.00999999	          0.14962290	          0.13029568	          0.04257948	          0.08585120	          0.14255921	          0.01146313	          0.00999999	          0.00999999	          0.01450708	          0.01181310	          0.49678462	
          1.67530554	         -4.14059989	         -0.19023142	         -8.20062360	          2.05279309	          0.84628037	          0.01370131	        -14.95947167	          0.43687770	          2.97389315	        -14.12962920	          4.88513708	         31.71557528	         28.22028740	         -1.73371240	         -2.64323946	        -10.77022380	          1.58248828	          0.21037867	         -9.51845715	         -0.30504474	          3.35454252	          0.21627849	          0.00999999	          0.00999999	          0.01947401	          0.02640603	          0.01181355	          0.07624174	          0.00999999	          0.15056169	          0.01000000	          0.00999999	          0.05768451	          0.14006599	          0.00999999	          0.13111911	          0.08778848	          0.00999999	          0.18547625	          0.14881343	          0.04087126	          0.07267457	          0.16251222	          0.00999999	          0.00999999	          0.02318745	          0.01228050	          0.01000000	          0.50006738	
          1.68618415	         -4.14432812	         -0.24882578	         -8.01280478	          2.06793623	          0.84657076	          0.01341065	        -14.36710068	          0.48838523	          2.49169261	        -16.91890939	          3.45297076	         32.77775871	         27.98490311	         -1.59908201	         -2.47024516	        -12.20518620	          1.63744897	          0.19369982	         -9.43553618	         -0.74441722	          3.47213460	          0.23830353	          0.00999999	          0.00999999	          0.01648509	          0.04817507	          0.01000053	          0.06453999	          0.00999999	          0.12745314	          0.00999999	          0.00999999	          0.04883096	          0.11856835	          0.00999999	          0.13599317	          0.07431450	          0.00999999	          0.20445623	          0.16542460	          0.04053542	          0.06152031	          0.16953180	          0.00999999	          0.00999999	          0.04817097	          0.01039566	          0.01000000	          0.48753704	
          1.69706275	         -4.14675346	         -0.31451030	         -7.78692905	          2.08282369	          0.84754991	          0.01304294	        -13.39718908	          0.55451295	          1.97064973	        -20.27895843	          1.80770553	         33.33667663	         27.71149520	         -1.46335047	         -2.32280221	        -13.55316436	          1.82379316	          0.18041318	         -9.36917289	         -1.16635664	          3.57169917	          0.24968981	          0.00999999	          0.00999999	          0.01395492	          0.06456876	          0.01000009	          0.05463425	          0.00999999	          0.10789135	          0.00999999	          0.00999999	          0.04133628	          0.10037021	          0.00999999	          0.12936693	          0.06290855	          0.00999999	          0.20578817	          0.17675656	          0.04256795	          0.05207804	          0.16747093	          0.00999999	          0.01000000	          0.06749044	          0.01000002	          0.01019876	          0.46961172	
          1.70794136	         -4.14870528	         -0.38717974	         -7.52386363	          2.09747996	          0.84915815	          0.01260189	        -12.04041376	          0.62558511	          1.42524937	        -24.19711237	         -0.06839249	         33.18919518	         27.32528453	         -1.32157420	         -2.17814556	        -14.67525652	          2.10688591	          0.17539378	         -9.31176394	         -1.56700569	          3.65166273	          0.24990425	          0.00999999	          0.00999999	          0.01181309	          0.08737281	          0.01000002	          0.04624887	          0.00999999	          0.09133195	          0.00999999	          0.00999999	          0.03499189	          0.08496517	          0.04117783	          0.10951141	          0.05325320	          0.00999999	          0.20164432	          0.17936395	          0.05075020	          0.04408499	          0.15354595	          0.00999999	          0.01000000	          0.08959272	          0.00999999	          0.00999999	          0.44599325	
          1.71881997	         -4.15117090	         -0.46599151	         -7.22393349	          2.11187936	          0.85125280	          0.01209144	        -10.30400336	          0.69652504	          0.88611291	        -28.64147837	         -2.05146410	         31.96386309	         26.79139906	         -1.16924091	         -1.99977278	        -15.50019468	          2.46494368	          0.18808533	         -9.26581358	         -1.94440106	          3.71094906	          0.23964231	          0.01036802	          0.00999999	          0.00999999	          0.09205149	          0.01395648	          0.03915049	          0.00999999	          0.07731411	          0.00999999	          0.00999999	          0.02962126	          0.07192452	          0.11953324	          0.09270335	          0.04507978	          0.00999999	          0.21006181	          0.16989737	          0.05805045	          0.03731873	          0.12997938	          0.00999999	          0.00999999	          0.09507966	          0.01000008	          0.01000004	          0.41401854	
          1.72969858	         -4.15534934	         -0.53855831	         -6.89727573	          2.12594737	          0.85363514	          0.01154111	         -8.24025860	          0.76054851	          0.40499739	        -33.49349228	         -3.88847481	         29.33277451	         26.13501215	         -0.99859430	         -1.76104884	        -16.05865507	          2.86753932	          0.24140309	         -9.23934454	         -2.31210699	          3.75212215	          0.24669121	          0.05175609	          0.00999999	          0.00999999	          0.07792322	          0.01181442	          0.03314159	          0.00999999	          0.06544777	          0.04525437	          0.00999999	          0.02507492	          0.06088539	          0.24607074	          0.07847503	          0.03816084	          0.00999999	          0.21715954	          0.14382115	          0.06817532	          0.03159097	          0.11471028	          0.00999999	          0.00999999	          0.11672375	          0.01000000	          0.00999999	          0.39013332	
